<svg xmlns="http://www.w3.org/2000/svg" viewBox="0 0 64 64"><path d="M45.47 33.29c.377.16.55.477.523.943-.027.47-.35 1.223-.966 2.264-.618 1.072-1.12 1.725-1.51 1.967-.39.24-.745.24-1.067 0l-8.573-6.216 1.128 10.508c.08.4-.096.708-.524.92-.428.216-1.26.323-2.495.323-1.236 0-2.066-.108-2.496-.323-.43-.213-.605-.52-.524-.92l1.127-10.51-8.533 6.217c-.322.24-.685.24-1.087 0-.402-.242-.913-.895-1.53-1.967-.618-1.04-.933-1.795-.946-2.264-.015-.467.167-.782.543-.943l9.7-4.29-9.7-4.25c-.376-.188-.558-.516-.543-.984.013-.467.328-1.223.946-2.265.617-1.043 1.127-1.684 1.53-1.925.402-.24.765-.24 1.087 0l8.533 6.176-1.127-10.466c-.08-.428.094-.75.523-.963s1.26-.32 2.495-.32c1.233 0 2.066.107 2.495.32s.604.536.524.964L33.876 25.75l8.573-6.176c.32-.24.678-.24 1.066 0 .39.242.892.897 1.51 1.966.616 1.016.938 1.758.966 2.225.026.47-.146.796-.523.983l-9.702 4.25 9.702 4.292" fill="#9aa0a5"/></svg>