<svg xmlns="http://www.w3.org/2000/svg" viewBox="0 0 64 64"><path d="M32 13c2.983 0 5.315 1.082 6.996 3.25 2 2.564 3 6.818 3 12.762 0 5.928-1.01 10.19-3.02 12.783C37.31 43.932 34.984 45 32 45c-2.996 0-5.413-1.172-7.247-3.516C22.92 39.14 22 34.96 22 28.947c0-5.9 1.01-10.146 3.02-12.74C26.69 14.07 29.014 13 31.997 13m0 4.98c-.715 0-1.352.232-1.912.695s-.994 1.293-1.303 2.49c-.404 1.553-.607 4.168-.607 7.846 0 3.677.182 6.204.546 7.58.362 1.374.82 2.29 1.376 2.745.553.457 1.186.684 1.9.684s1.352-.23 1.912-.694c.56-.465.994-1.295 1.303-2.492.406-1.54.61-4.146.61-7.822 0-3.678-.183-6.203-.547-7.58-.363-1.373-.822-2.293-1.377-2.756a2.873 2.873 0 0 0-1.9-.696" fill="#9aa0a5"/></svg>