<svg xmlns="http://www.w3.org/2000/svg" viewBox="0 0 64 64"><path d="M21.978 36.15l5.585-.707c.18 1.482.657 2.617 1.438 3.4s1.726 1.176 2.835 1.176c1.19 0 2.193-.472 3.01-1.41.814-.942 1.223-2.21 1.223-3.808 0-1.51-.39-2.707-1.172-3.59-.78-.885-1.73-1.324-2.854-1.324-.74 0-1.623.148-2.65.447l.637-4.895c1.56.043 2.75-.31 3.572-1.06s1.232-1.74 1.232-2.98c0-1.056-.3-1.897-.903-2.522-.602-.627-1.403-.94-2.402-.94-.985 0-1.827.354-2.525 1.067s-1.122 1.752-1.273 3.12l-5.317-.938c.37-1.896.928-3.41 1.674-4.543.745-1.133 1.785-2.023 3.12-2.672 1.335-.648 2.83-.973 4.487-.973 2.833 0 5.106.938 6.816 2.82 1.41 1.54 2.115 3.276 2.115 5.216 0 2.75-1.444 4.945-4.332 6.584 1.725.385 3.104 1.246 4.138 2.586 1.034 1.34 1.55 2.957 1.55 4.854 0 2.75-.964 5.094-2.894 7.03-1.932 1.938-4.334 2.908-7.208 2.908-2.724 0-4.983-.816-6.776-2.447-1.795-1.632-2.835-3.767-3.123-6.4" fill="#9aa0a5"/></svg>