<svg xmlns="http://www.w3.org/2000/svg" viewBox="0 0 64 64"><path d="M22 36.25l5.68-.63c.162 1.378.643 2.468 1.44 3.272.798.807 1.717 1.21 2.76 1.21 1.188 0 2.196-.52 3.02-1.558.824-1.035 1.236-2.598 1.236-4.688 0-1.957-.41-3.426-1.228-4.404-.817-.98-1.883-1.47-3.193-1.47-1.637 0-3.104.778-4.402 2.33l-4.625-.72 2.922-16.596h15.07v5.72H29.93l-.893 5.42c1.27-.683 2.568-1.024 3.895-1.024 2.527 0 4.672.986 6.43 2.96C41.12 28.04 42 30.6 42 33.75c0 2.623-.71 4.967-2.13 7.02-1.934 2.813-4.62 4.22-8.05 4.22-2.746 0-4.984-.79-6.715-2.37-1.73-1.582-2.765-3.707-3.103-6.375" fill="#9aa0a5"/></svg>