<svg xmlns="http://www.w3.org/2000/svg" viewBox="0 0 64 64"><path d="M41.45 20.8l-5.558.644c-.136-1.197-.49-2.082-1.063-2.65-.572-.57-1.315-.855-2.227-.855-1.213 0-2.238.57-3.075 1.708-.838 1.14-1.365 3.514-1.584 7.12 1.43-1.77 3.208-2.653 5.333-2.653 2.396 0 4.45.957 6.158 2.867 1.71 1.91 2.564 4.375 2.564 7.395 0 3.207-.9 5.78-2.697 7.717S35.198 45 32.38 45c-3.02 0-5.51-1.23-7.457-3.688C22.975 38.855 22 34.826 22 29.222c0-5.744 1.016-9.885 3.045-12.42 2.03-2.537 4.665-3.805 7.906-3.805 2.275 0 4.158.666 5.65 1.998 1.49 1.334 2.44 3.27 2.85 5.803m-13.01 13.1c0 1.953.43 3.46 1.287 4.52.857 1.064 1.838 1.595 2.94 1.595 1.064 0 1.948-.436 2.657-1.305.707-.87 1.063-2.295 1.063-4.275 0-2.04-.382-3.53-1.145-4.48-.764-.944-1.716-1.42-2.86-1.42-1.103 0-2.036.452-2.8 1.356s-1.142 2.243-1.142 4.01" fill="#9aa0a5"/></svg>