<svg xmlns="http://www.w3.org/2000/svg" viewBox="0 0 64 64"><path d="M22.572 37.2l5.556-.64c.136 1.18.49 2.056 1.063 2.626s1.33.854 2.27.854c1.184 0 2.192-.568 3.02-1.71.83-1.138 1.36-3.5 1.592-7.09-1.443 1.75-3.247 2.626-5.413 2.626-2.358 0-4.392-.95-6.1-2.85-1.71-1.902-2.563-4.376-2.563-7.423 0-3.178.9-5.736 2.707-7.68 1.805-1.945 4.102-2.916 6.895-2.916 3.035 0 5.527 1.23 7.478 3.684 1.945 2.46 2.92 6.5 2.92 12.12 0 5.728-1.016 9.856-3.045 12.392-2.03 2.532-4.672 3.802-7.926 3.802-2.343 0-4.236-.652-5.68-1.955-1.444-1.304-2.37-3.253-2.778-5.843m12.993-13.12c0-1.938-.43-3.44-1.278-4.506-.853-1.067-1.836-1.603-2.952-1.603-1.063 0-1.943.44-2.645 1.314-.703.878-1.054 2.312-1.054 4.306 0 2.02.382 3.508 1.146 4.453.763.946 1.716 1.42 2.858 1.42 1.104 0 2.033-.454 2.79-1.366.757-.912 1.135-2.25 1.135-4.02" fill="#9aa0a5"/></svg>