<svg xmlns="http://www.w3.org/2000/svg" viewBox="0 0 64 64" enable-background="new 0 0 64 64"><path d="M 62 55.33 C 62 59.02 59.02 62 55.33 62 L 8.67 62 C 4.98 62 2 59.02 2 55.33 l 0 -46.67 c 0 -3.68 2.99 -6.67 6.67 -6.67 l 46.67 0 c 3.68 0 6.67 2.99 6.67 6.67 l 0 46.67 z" style="fill:#8cc63e;fill-opacity:1;fill-rule:nonzero;stroke:none"/><path d="m 27.15 35.97 9.82 0 -4.81 -14.99 -0.1 0 -4.91 14.99 z m -0.57 -18.76 c 0.88 -2.38 2.9 -4.29 5.53 -4.29 2.74 0 4.65 1.81 5.53 4.29 l 10.13 28.11 c 0.31 0.83 0.41 1.55 0.41 1.91 0 2.02 -1.66 3.41 -3.56 3.41 -2.17 0 -3.26 -1.14 -3.77 -2.69 l -1.55 -4.86 -14.37 0 -1.55 4.81 c -0.52 1.6 -1.6 2.74 -3.72 2.74 -2.07 0 -3.82 -1.55 -3.82 -3.62 0 -0.83 0.26 -1.45 0.36 -1.71 L 26.58 17.21 Z" style="fill:#ffffff;fill-opacity:1;fill-rule:nonzero;stroke:none"/></svg>
