<svg xmlns="http://www.w3.org/2000/svg" viewBox="0 0 64 64" enable-background="new 0 0 64 64"><path style="fill:#8cc63e;fill-opacity:1;fill-rule:nonzero;stroke:none" d="M 62 55.33 C 62 59.02 59.02 62 55.33 62 L 8.67 62 C 4.98 62 2 59.02 2 55.33 l 0 -46.67 c 0 -3.68 2.99 -6.67 6.67 -6.67 l 46.67 0 c 3.68 0 6.67 2.99 6.67 6.67 l 0 46.67 z"/><path style="fill:#ffffff;fill-opacity:1;fill-rule:nonzero;stroke:none" d="m 34.87 12.92 c 3.77 0 11.11 1.24 11.11 5.79 0 1.86 -1.29 3.46 -3.2 3.46 -2.12 0 -3.56 -1.81 -7.91 -1.81 -6.41 0 -9.71 5.43 -9.71 11.73 0 6.15 3.36 11.42 9.71 11.42 4.34 0 6.1 -2.17 8.22 -2.17 2.33 0 3.41 2.32 3.41 3.51 0 4.96 -7.8 6.1 -11.63 6.1 -10.49 0 -17.78 -8.32 -17.78 -19.02 0 -10.75 7.24 -19.02 17.78 -19.02"/></svg>
