<svg xmlns="http://www.w3.org/2000/svg" viewBox="0 0 64 64" enable-background="new 0 0 64 64"><path style="fill:#8cc63e;fill-opacity:1;fill-rule:nonzero;stroke:none" d="M 62 55.33 C 62 59.02 59.02 62 55.33 62 L 8.67 62 C 4.98 62 2 59.02 2 55.33 l 0 -46.67 c 0 -3.68 2.99 -6.67 6.67 -6.67 l 46.67 0 c 3.68 0 6.67 2.99 6.67 6.67 l 0 46.67 z"/><path style="fill:#ffffff;fill-opacity:1;fill-rule:nonzero;stroke:none" d="m 24.85 43.2 5.22 0 c 6.67 0 9.71 -4.91 9.71 -11.11 0 -6.62 -3.1 -11.42 -10.23 -11.42 l -4.7 0 0 22.53 z m -7.75 -25.68 c 0 -2.38 1.65 -3.98 3.98 -3.98 l 8.58 0 c 11.58 0 18.19 7.44 18.19 18.91 0 10.85 -7.03 17.88 -17.67 17.88 l -8.99 0 c -1.71 0 -4.08 -0.93 -4.08 -3.88 l 0 -28.94 z"/></svg>
