<svg xmlns="http://www.w3.org/2000/svg" viewBox="0 0 64 64" enable-background="new 0 0 64 64"><path style="fill:#8cc63e;fill-opacity:1;fill-rule:nonzero;stroke:none" d="M 62 55.33 C 62 59.02 59.02 62 55.33 62 L 8.67 62 C 4.98 62 2 59.02 2 55.33 l 0 -46.67 c 0 -3.68 2.99 -6.67 6.67 -6.67 l 46.67 0 c 3.68 0 6.67 2.99 6.67 6.67 l 0 46.67 z"/><path style="fill:#ffffff;fill-opacity:1;fill-rule:nonzero;stroke:none" d="m 27.25 43.51 6.1 0 c 2.79 0 4.86 -1.6 4.86 -4.5 0 -2.43 -1.86 -4.08 -5.48 -4.08 l -5.48 0 0 8.58 z m 0 -15.4 4.03 0 c 2.53 0 4.18 -1.5 4.18 -4.08 0 -2.43 -1.91 -3.67 -4.18 -3.67 l -4.03 0 0 7.75 z m -7.75 -10.7 c 0 -2.48 1.71 -3.88 4.08 -3.88 l 9.92 0 c 5.37 0 9.72 3.62 9.72 9.1 0 3.62 -1.5 6.05 -4.81 7.59 l 0 0.1 c 4.39 0.62 7.86 4.29 7.86 8.78 0 7.29 -4.86 11.21 -11.99 11.21 l -10.64 0 c -2.38 0 -4.13 -1.5 -4.13 -3.93 l 0 -28.99 z"/></svg>
