<svg xmlns="http://www.w3.org/2000/svg" viewBox="0 0 64 64" enable-background="new 0 0 64 64"><path d="M 62 55.33 C 62 59.02 59.02 62 55.33 62 L 8.67 62 C 4.98 62 2 59.02 2 55.33 l 0 -46.67 c 0 -3.68 2.99 -6.67 6.67 -6.67 l 46.67 0 c 3.68 0 6.67 2.99 6.67 6.67 l 0 46.67 z" style="fill:#8cc63e;fill-opacity:1;fill-rule:nonzero;stroke:none"/><path d="m 22.37 18.04 c 0 -2.58 1.29 -4.5 4.03 -4.5 l 12.81 0 c 2.48 0 3.67 1.76 3.67 3.56 0 1.76 -1.24 3.57 -3.67 3.57 l -9.1 0 0 7.54 8.48 0 c 2.53 0 3.77 1.76 3.77 3.57 0 1.76 -1.29 3.56 -3.77 3.56 l -8.48 0 0 7.86 9.56 0 c 2.48 0 3.67 1.76 3.67 3.56 0 1.76 -1.24 3.57 -3.67 3.57 l -13.33 0 c -2.27 0 -3.98 -1.55 -3.98 -3.88 l 0 -28.42 z" style="fill:#ffffff;fill-opacity:1;fill-rule:nonzero;stroke:none"/></svg>
