<svg xmlns="http://www.w3.org/2000/svg" viewBox="0 0 64 64" enable-background="new 0 0 64 64"><path d="M 62 55.33 C 62 59.02 59.02 62 55.33 62 L 8.67 62 C 4.98 62 2 59.02 2 55.33 l 0 -46.67 c 0 -3.68 2.99 -6.67 6.67 -6.67 l 46.67 0 c 3.68 0 6.67 2.99 6.67 6.67 l 0 46.67 z" style="fill:#8cc63e;fill-opacity:1;fill-rule:nonzero;stroke:none"/><path d="m 40.5 40 c 0 8.68 -5.53 10.96 -10.23 10.96 -3.57 0 -9.51 -1.4 -9.51 -5.89 0 -1.4 1.19 -3.15 2.89 -3.15 2.07 0 3.88 1.91 6.2 1.91 2.89 0 2.89 -2.69 2.89 -4.34 l 0 -22.22 c 0 -2.58 1.66 -4.03 3.88 -4.03 2.22 0 3.88 1.45 3.88 4.03 l 0 22.74 z" style="fill:#ffffff;fill-opacity:1;fill-rule:nonzero;stroke:none"/></svg>
