<svg xmlns="http://www.w3.org/2000/svg" viewBox="0 0 64 64" enable-background="new 0 0 64 64"><path d="M 62 55.33 C 62 59.02 59.02 62 55.33 62 L 8.67 62 C 4.98 62 2 59.02 2 55.33 l 0 -46.67 c 0 -3.68 2.99 -6.67 6.67 -6.67 l 46.67 0 c 3.68 0 6.67 2.99 6.67 6.67 l 0 46.67 z" style="fill:#8cc63e;fill-opacity:1;fill-rule:nonzero;stroke:none"/><path d="m 44.77 28.53 c 3.25 0 4.55 1.65 4.55 4.96 0 9.97 -6.51 17.47 -16.85 17.47 -10.49 0 -17.78 -8.32 -17.78 -19.02 0 -10.75 7.23 -19.02 17.78 -19.02 7.8 0 14.21 3.67 14.21 7.29 0 2.22 -1.39 3.62 -3.2 3.62 -3.51 0 -4.24 -3.77 -11.01 -3.77 -6.46 0 -9.71 5.63 -9.71 11.88 0 6.3 3.15 11.89 9.71 11.89 4.08 0 8.79 -2.27 8.79 -8.16 l -5.27 0 c -2.12 0 -3.62 -1.5 -3.62 -3.62 0 -2.17 1.65 -3.51 3.62 -3.51 l 8.79 0 z" style="fill:#ffffff;fill-opacity:1;fill-rule:nonzero;stroke:none"/></svg>
