<svg xmlns="http://www.w3.org/2000/svg" viewBox="0 0 64 64" enable-background="new 0 0 64 64"><path d="M 62 55.33 C 62 59.02 59.02 62 55.33 62 L 8.67 62 C 4.98 62 2 59.02 2 55.33 l 0 -46.67 c 0 -3.68 2.99 -6.67 6.67 -6.67 l 46.67 0 c 3.68 0 6.67 2.99 6.67 6.67 l 0 46.67 z" style="fill:#8cc63e;fill-opacity:1;fill-rule:nonzero;stroke:none"/><path d="m 22.86 17.57 c 0 -2.12 1.45 -4.03 4.03 -4.03 l 13.23 0 c 2.27 0 3.46 1.76 3.46 3.56 0 1.76 -1.14 3.56 -3.46 3.56 l -9.51 0 0 7.54 8.01 0 c 2.48 0 3.72 1.76 3.72 3.52 0 1.81 -1.24 3.62 -3.72 3.62 l -8.01 0 0 11.27 c 0 2.58 -1.65 4.03 -3.88 4.03 -2.22 0 -3.88 -1.45 -3.88 -4.03 l 0 -29.04 z" style="fill:#ffffff;fill-opacity:1;fill-rule:nonzero;stroke:none"/></svg>
