<svg xmlns="http://www.w3.org/2000/svg" viewBox="0 0 64 64" enable-background="new 0 0 64 64"><path d="M 62 55.33 C 62 59.02 59.02 62 55.33 62 L 8.67 62 C 4.98 62 2 59.02 2 55.33 l 0 -46.67 c 0 -3.68 2.99 -6.67 6.67 -6.67 l 46.67 0 c 3.68 0 6.67 2.99 6.67 6.67 l 0 46.67 z" style="fill:#8cc63e;fill-opacity:1;fill-rule:nonzero;stroke:none"/><path d="m 27.51 30.64 -8.37 -11.37 c -0.52 -0.67 -0.83 -1.45 -0.83 -2.27 0 -2.27 1.71 -3.77 3.93 -3.77 1.29 0 2.63 0.88 3.36 1.91 l 6.41 9.1 6.41 -9.1 c 0.72 -1.03 2.07 -1.91 3.36 -1.91 2.22 0 3.93 1.5 3.93 3.77 0 0.83 -0.31 1.6 -0.83 2.27 l -8.37 11.37 10.23 13.75 c 0.41 0.57 0.88 1.55 0.88 2.63 0 2.17 -1.65 3.62 -3.92 3.62 -1.4 0 -2.43 -0.62 -3.21 -1.7 l -8.47 -11.78 -8.47 11.78 c -0.78 1.08 -1.81 1.7 -3.21 1.7 -2.27 0 -3.93 -1.45 -3.93 -3.62 0 -1.08 0.47 -2.07 0.88 -2.63 L 27.51 30.64 Z" style="fill:#ffffff;fill-opacity:1;fill-rule:nonzero;stroke:none"/></svg>
