<svg xmlns="http://www.w3.org/2000/svg" viewBox="0 0 64 64" enable-background="new 0 0 64 64"><path d="M 62 55.33 C 62 59.02 59.02 62 55.33 62 L 8.67 62 C 4.98 62 2 59.02 2 55.33 l 0 -46.67 c 0 -3.68 2.99 -6.67 6.67 -6.67 l 46.67 0 c 3.68 0 6.67 2.98 6.67 6.67 l 0 46.67 z" style="fill:#8cc63e;fill-opacity:1;fill-rule:nonzero;stroke:none"/><path d="m 15.33 17.26 c 0 -2.58 1.95 -4.03 4.17 -4.03 2.22 0 4.17 1.45 4.17 4.03 l 0 18.04 c 0 4.75 3.42 8.21 8.33 8.21 4.7 0 8.33 -3.66 8.33 -8.21 l 0 -18.04 c 0 -2.58 1.95 -4.03 4.17 -4.03 2.22 0 4.11 1.45 4.11 4.03 l 0 18.45 c 0 8.68 -8.09 15.25 -16.61 15.25 -8.63 0 -16.67 -6.46 -16.67 -15.25 l 0 -18.45 z" style="fill:#ffffff;fill-opacity:1;fill-rule:nonzero;stroke:none"/></svg>
