<svg xmlns="http://www.w3.org/2000/svg" viewBox="0 0 64 64" enable-background="new 0 0 64 64"><path d="M 62 55.33 C 62 59.02 59.02 62 55.33 62 L 8.67 62 C 4.98 62 2 59.02 2 55.33 l 0 -46.67 c 0 -3.68 2.99 -6.67 6.67 -6.67 l 46.67 0 c 3.68 0 6.67 2.99 6.67 6.67 l 0 46.67 z" style="fill:#8cc63e;fill-opacity:1;fill-rule:nonzero;stroke:none"/><path d="m 46.37 17 c 0 -2.07 -1.55 -3.77 -3.72 -3.77 -1.34 0 -2.53 0.57 -3.2 1.55 L 32 25.58 l -7.44 -10.8 c -0.67 -0.98 -1.86 -1.55 -3.21 -1.55 -2.17 0 -3.72 1.71 -3.72 3.77 0 0.83 0.26 1.65 0.72 2.33 l 8.64 12.16 0 14.03 c 0 2.66 2.16 4.82 4.82 4.82 l 0.36 0 c 2.66 0 4.82 -2.16 4.82 -4.82 l 0 -14.02 8.65 -12.16 c 0.47 -0.67 0.72 -1.5 0.72 -2.33" style="fill:#ffffff;fill-opacity:1;fill-rule:nonzero;stroke:none"/></svg>
