<svg xmlns="http://www.w3.org/2000/svg" viewBox="0 0 64 64" enable-background="new 0 0 64 64"><path d="M 62 55.33 C 62 59.02 59.02 62 55.33 62 L 8.67 62 C 4.98 62 2 59.02 2 55.33 l 0 -46.67 c 0 -3.68 2.99 -6.67 6.67 -6.67 l 46.67 0 c 3.68 0 6.67 2.99 6.67 6.67 l 0 46.67 z" style="fill:#8cc63e;fill-opacity:1;fill-rule:nonzero;stroke:none"/><path d="m 16.86 18.86 c -0.26 -0.67 -0.36 -1.19 -0.36 -1.91 0 -2.17 1.91 -3.72 3.98 -3.72 1.76 0 2.84 1.14 3.51 2.53 l 8.01 21.5 8.01 -21.5 c 0.67 -1.4 1.75 -2.53 3.51 -2.53 2.07 0 3.98 1.55 3.98 3.72 0 0.72 -0.1 1.24 -0.36 1.91 L 35.83 47.65 c -0.67 1.65 -1.55 3 -3.83 3 -2.27 0 -3.15 -1.34 -3.82 -3 L 16.86 18.86 Z" style="fill:#ffffff;fill-opacity:1;fill-rule:nonzero;stroke:none"/></svg>
