<svg xmlns="http://www.w3.org/2000/svg" viewBox="0 0 64 64" enable-background="new 0 0 64 64"><path d="M 62 55.33 C 62 59.02 59.02 62 55.33 62 L 8.67 62 C 4.98 62 2 59.02 2 55.33 l 0 -46.67 c 0 -3.68 2.99 -6.67 6.67 -6.67 l 46.67 0 c 3.68 0 6.67 2.99 6.67 6.67 l 0 46.67 z" style="fill:#8cc63e;fill-opacity:1;fill-rule:nonzero;stroke:none"/><path d="m 42.47 43.51 c 2.17 0 3.72 1.19 3.72 3.41 0 1.97 -1.86 3.41 -3.72 3.41 l -20.31 0 c -2.74 0 -4.34 -1.55 -4.34 -3.72 0 -1.03 0.36 -2.07 1.03 -3 l 16.64 -23.25 -13.59 0 c -2.07 0 -3.62 -1.19 -3.62 -3.31 0 -1.96 1.65 -3.51 3.62 -3.51 l 18.92 0 c 3 0 4.34 1.91 4.34 3.72 0 1.14 -0.47 2.43 -1.14 3.31 L 27.48 43.51 l 14.99 0 z" style="fill:#ffffff;fill-opacity:1;fill-rule:nonzero;stroke:none"/></svg>
