<svg xmlns="http://www.w3.org/2000/svg" viewBox="0 0 64 64" enable-background="new 0 0 64 64"><path d="M 62 55.33 C 62 59.02 59.02 62 55.33 62 L 8.67 62 C 4.98 62 2 59.02 2 55.33 l 0 -46.67 c 0 -3.68 2.99 -6.67 6.67 -6.67 l 46.67 0 c 3.68 0 6.67 2.99 6.67 6.67 l 0 46.67 z" style="fill:#8cc63e;fill-opacity:1;fill-rule:nonzero;stroke:none"/><path d="m 42.21 18.09 c 0 2.02 -1.34 3.82 -3.46 3.82 -2.12 0 -3.77 -1.55 -6.88 -1.55 -2.22 0 -4.24 1.19 -4.24 3.36 0 5.32 17.26 1.91 17.26 15.24 0 7.39 -6.1 11.99 -13.23 11.99 -3.98 0 -12.56 -0.93 -12.56 -5.79 0 -2.02 1.34 -3.67 3.46 -3.67 2.43 0 5.32 2.02 8.68 2.02 3.41 0 5.27 -1.91 5.27 -4.45 0 -6.1 -17.26 -2.43 -17.26 -14.42 0 -7.24 5.94 -11.73 12.81 -11.73 2.9 0 10.13 1.09 10.13 5.17" style="fill:#ffffff;fill-opacity:1;fill-rule:nonzero;stroke:none"/></svg>
