<svg xmlns="http://www.w3.org/2000/svg" viewBox="0 0 64 64" enable-background="new 0 0 64 64"><path d="M 62 55.33 C 62 59.02 59.02 62 55.33 62 L 8.67 62 C 4.98 62 2 59.02 2 55.33 l 0 -46.67 c 0 -3.68 2.99 -6.67 6.67 -6.67 l 46.67 0 c 3.68 0 6.67 2.99 6.67 6.67 l 0 46.67 z" style="fill:#8cc63e;fill-opacity:1;fill-rule:nonzero;stroke:none"/><path d="m 18.54 17.05 c 0 -2.12 1.55 -3.82 3.88 -3.82 2.22 0 3.88 1.45 3.88 3.82 l 0 11.16 12.71 -13.54 c 0.57 -0.62 1.55 -1.45 3 -1.45 1.96 0 3.83 1.5 3.83 3.72 0 1.34 -0.83 2.43 -2.53 4.13 L 33.53 30.7 45.46 43.15 c 1.24 1.24 2.17 2.38 2.17 3.93 0 2.43 -1.91 3.56 -4.03 3.56 -1.5 0 -2.48 -0.88 -3.93 -2.43 l -13.38 -14.47 0 13.18 c 0 2.02 -1.55 3.72 -3.88 3.72 -2.22 0 -3.88 -1.45 -3.88 -3.72 l 0 -29.87 z" style="fill:#ffffff;fill-opacity:1;fill-rule:nonzero;stroke:none"/></svg>
