<svg xmlns="http://www.w3.org/2000/svg" viewBox="0 0 64 64" enable-background="new 0 0 64 64"><path d="M 62 55.33 C 62 59.02 59.02 62 55.33 62 L 8.67 62 C 4.98 62 2 59.02 2 55.33 l 0 -46.67 c 0 -3.68 2.99 -6.67 6.67 -6.67 l 46.67 0 c 3.68 0 6.67 2.99 6.67 6.67 l 0 46.67 z" style="fill:#8cc63e;fill-opacity:1;fill-rule:nonzero;stroke:none"/><path d="m 27.71 31.32 5.27 0 c 3.26 0 5.32 -2.38 5.32 -5.48 0 -3.1 -2.07 -5.48 -5.32 -5.48 l -5.27 0 0 10.96 z M 19.96 17.57 c 0 -2.43 1.45 -4.03 4.03 -4.03 l 9.14 0 c 7.6 0 13.23 4.96 13.23 12.35 0 7.54 -5.84 12.25 -12.92 12.25 l -5.74 0 0 8.47 c 0 2.58 -1.65 4.03 -3.88 4.03 -2.22 0 -3.88 -1.45 -3.88 -4.03 l 0 -29.04 z" style="fill:#ffffff;fill-opacity:1;fill-rule:nonzero;stroke:none"/></svg>
