<svg xmlns="http://www.w3.org/2000/svg" viewBox="0 0 64 64" enable-background="new 0 0 64 64"><path d="M 62 55.33 C 62 59.02 59.02 62 55.33 62 L 8.67 62 C 4.98 62 2 59.02 2 55.33 l 0 -46.67 c 0 -3.68 2.99 -6.67 6.67 -6.67 l 46.67 0 c 3.68 0 6.67 2.99 6.67 6.67 l 0 46.67 z" style="fill:#8cc63e;fill-opacity:1;fill-rule:nonzero;stroke:none"/><path d="m 15.62 17.21 c 0.31 -1.86 2.33 -3.98 5.07 -3.98 2.58 0 4.6 1.86 5.17 3.72 l 6.1 20.46 0.1 0 L 38.15 16.95 c 0.57 -1.86 2.58 -3.72 5.17 -3.72 2.74 0 4.75 2.12 5.07 3.98 l 4.8 28.84 c 0.05 0.31 0.05 0.62 0.05 0.88 0 2.27 -1.65 3.72 -3.72 3.72 -2.64 0 -3.67 -1.19 -4.03 -3.62 l -3.05 -21.03 -0.1 0 L 36.14 47.65 c -0.36 1.24 -1.34 3 -4.13 3 -2.79 0 -3.77 -1.76 -4.13 -3 L 21.67 25.99 l -0.1 0 -3.05 21.03 c -0.36 2.43 -1.4 3.62 -4.03 3.62 -2.07 0 -3.72 -1.45 -3.72 -3.72 0 -0.26 0 -0.57 0.05 -0.88 l 4.8 -28.84 z" style="fill:#ffffff;fill-opacity:1;fill-rule:nonzero;stroke:none"/></svg>
