<svg xmlns="http://www.w3.org/2000/svg" viewBox="0 0 64 64" enable-background="new 0 0 64 64"><path d="M 62 55.33 C 62 59.02 59.02 62 55.33 62 L 8.67 62 C 4.98 62 2 59.02 2 55.33 l 0 -46.67 c 0 -3.68 2.99 -6.67 6.67 -6.67 l 46.67 0 c 3.68 0 6.67 2.99 6.67 6.67 l 0 46.67 z" style="fill:#8cc63e;fill-opacity:1;fill-rule:nonzero;stroke:none"/><path d="m 27.71 29.82 5.32 0 c 2.84 0 4.81 -1.71 4.81 -4.6 0 -2.94 -1.97 -4.55 -4.81 -4.55 l -5.32 0 0 9.15 z M 19.96 17.57 c 0 -2.48 1.4 -4.03 3.98 -4.03 l 9.1 0 c 7.96 0 12.87 3.57 12.87 11.68 0 5.68 -4.29 8.94 -9.56 9.77 l 8.79 9.41 c 0.72 0.78 1.03 1.55 1.03 2.27 0 2.02 -1.6 3.98 -3.87 3.98 -0.93 0 -2.17 -0.36 -3 -1.34 L 27.82 35.4 l -0.1 0 0 11.21 c 0 2.58 -1.65 4.03 -3.88 4.03 -2.22 0 -3.88 -1.45 -3.88 -4.03 l 0 -29.04 z" style="fill:#ffffff;fill-opacity:1;fill-rule:nonzero;stroke:none"/></svg>
