<svg xmlns="http://www.w3.org/2000/svg" viewBox="0 0 64 64" enable-background="new 0 0 64 64"><path d="M 62 55.33 C 62 59.02 59.02 62 55.33 62 L 8.67 62 C 4.98 62 2 59.02 2 55.33 l 0 -46.67 c 0 -3.68 2.99 -6.67 6.67 -6.67 l 46.67 0 c 3.68 0 6.67 2.99 6.67 6.67 l 0 46.67 z" style="fill:#8cc63e;fill-opacity:1;fill-rule:nonzero;stroke:none"/><path d="m 16.32 17.26 c 0 -2.58 1.65 -4.03 3.88 -4.03 0.98 0 2.58 0.78 3.25 1.7 l 16.38 21.86 0.1 0 0 -19.54 c 0 -2.58 1.66 -4.03 3.88 -4.03 2.22 0 3.88 1.45 3.88 4.03 l 0 29.35 c 0 2.58 -1.65 4.03 -3.88 4.03 -0.98 0 -2.53 -0.78 -3.25 -1.7 L 24.17 27.34 l -0.1 0 0 19.27 c 0 2.58 -1.65 4.03 -3.88 4.03 -2.22 0 -3.88 -1.45 -3.88 -4.03 l 0 -29.35 z" style="fill:#ffffff;fill-opacity:1;fill-rule:nonzero;stroke:none"/></svg>
