<svg xmlns="http://www.w3.org/2000/svg" viewBox="0 0 64 64" enable-background="new 0 0 64 64"><path d="M 62 55.33 C 62 59.02 59.02 62 55.33 62 L 8.67 62 C 4.98 62 2 59.02 2 55.33 l 0 -46.67 c 0 -3.68 2.99 -6.67 6.67 -6.67 l 46.67 0 c 3.68 0 6.67 2.98 6.67 6.67 l 0 46.67 z" style="fill:#8cc63e;fill-opacity:1;fill-rule:nonzero;stroke:none"/><path d="m 41.72 31.94 c 0 -6.25 -3.26 -11.88 -9.72 -11.88 -6.46 0 -9.71 5.63 -9.71 11.88 0 6.3 3.15 11.89 9.71 11.89 6.56 0 9.72 -5.58 9.72 -11.89 m -27.49 0 c 0 -10.75 7.24 -19.02 17.78 -19.02 10.39 0 17.78 8.53 17.78 19.02 0 10.7 -7.18 19.02 -17.78 19.02 -10.49 0 -17.78 -8.32 -17.78 -19.02" style="fill:#ffffff;fill-opacity:1;fill-rule:nonzero;stroke:none"/></svg>
