<svg xmlns="http://www.w3.org/2000/svg" viewBox="0 0 64 64" enable-background="new 0 0 64 64"><path d="M 62 55.33 C 62 59.02 59.02 62 55.33 62 L 8.67 62 C 4.98 62 2 59.02 2 55.33 l 0 -46.67 c 0 -3.68 2.99 -6.67 6.67 -6.67 l 46.67 0 c 3.68 0 6.67 2.99 6.67 6.67 l 0 46.67 z" style="fill:#8cc63e;fill-opacity:1;fill-rule:nonzero;stroke:none"/><path d="m 9.16 18.4 c -0.15 -0.67 -0.21 -1.03 -0.21 -1.76 0 -1.65 1.4 -3.41 3.67 -3.41 2.48 0 3.67 1.45 4.13 3.72 l 4.39 21.96 0.1 0 L 27.97 16.28 c 0.57 -1.86 2.12 -3.05 4.03 -3.05 1.91 0 3.46 1.19 4.03 3.05 l 6.72 22.63 0.1 0 4.39 -21.96 c 0.46 -2.27 1.65 -3.72 4.13 -3.72 2.27 0 3.67 1.76 3.67 3.41 0 0.72 -0.05 1.08 -0.21 1.76 l -6.56 28.22 c -0.52 2.17 -2.22 4.03 -5.12 4.03 -2.53 0 -4.5 -1.65 -5.12 -3.77 L 32.06 26.92 l -0.1 0 -6 19.95 c -0.62 2.12 -2.58 3.77 -5.12 3.77 -2.89 0 -4.6 -1.86 -5.12 -4.03 L 9.16 18.4 Z" style="fill:#ffffff;fill-opacity:1;fill-rule:nonzero;stroke:none"/></svg>
