<svg xmlns="http://www.w3.org/2000/svg" viewBox="0 0 64 64" enable-background="new 0 0 64 64"><path d="M 62 55.33 C 62 59.02 59.02 62 55.33 62 L 8.67 62 C 4.98 62 2 59.02 2 55.33 l 0 -46.67 c 0 -3.68 2.99 -6.67 6.67 -6.67 l 46.67 0 c 3.68 0 6.67 2.99 6.67 6.67 l 0 46.67 z" style="fill:#8cc63e;fill-opacity:1;fill-rule:nonzero;stroke:none"/><path d="m 40.48 38.55 c 0.88 -1.97 1.24 -4.24 1.24 -6.62 0 -6.15 -3.26 -11.88 -9.71 -11.88 -6.46 0 -9.72 5.63 -9.72 11.88 0 6.3 3.15 11.89 9.72 11.89 1.19 0 2.27 -0.16 3.31 -0.36 l -1.86 -1.81 c -0.57 -0.52 -0.98 -1.34 -0.98 -2.07 0 -2.02 1.4 -3.72 3.52 -3.72 0.72 0 1.34 0.26 1.96 0.67 l 2.53 2.02 z M 41.1 48.68 c -2.53 1.45 -5.58 2.27 -9.09 2.27 -10.49 0 -17.78 -8.32 -17.78 -19.02 0 -10.75 7.23 -19.02 17.78 -19.02 10.38 0 17.77 8.53 17.77 19.02 0 4.55 -1.19 8.68 -3.46 11.94 l 2.95 2.53 c 0.98 0.88 1.81 1.71 1.81 3.15 0 1.81 -1.81 3.26 -3.56 3.26 -1.14 0 -2.07 -0.47 -3.46 -1.66 l -2.95 -2.48 z" style="fill:#ffffff;fill-opacity:1;fill-rule:nonzero;stroke:none"/></svg>
