<svg xmlns="http://www.w3.org/2000/svg" viewBox="0 0 64 64"><path d="M42 39.33v5.674H22a15.42 15.42 0 0 1 1.95-6.098c1.082-1.922 3.22-4.467 6.415-7.643 2.57-2.564 4.148-4.303 4.73-5.217.785-1.26 1.178-2.508 1.178-3.738 0-1.363-.342-2.41-1.025-3.143s-1.627-1.098-2.832-1.098c-1.19 0-2.14.385-2.843 1.152-.704.767-1.11 2.044-1.218 3.825l-5.686-.61c.337-3.36 1.4-5.772 3.187-7.237 1.788-1.462 4.02-2.194 6.702-2.194 2.935 0 5.245.848 6.923 2.543S42 19.352 42 21.873c0 1.434-.24 2.8-.72 4.098-.48 1.3-1.243 2.657-2.285 4.077-.69.94-1.937 2.297-3.737 4.064-1.8 1.77-2.94 2.944-3.42 3.524a10.48 10.48 0 0 0-1.168 1.695H42" fill="#9aa0a5"/></svg>