<svg xmlns="http://www.w3.org/2000/svg" viewBox="0 0 64 64"><path d="M27.08 27.547c-1.51-.654-2.604-1.557-3.29-2.703-.685-1.145-1.025-2.402-1.025-3.768 0-2.338.79-4.268 2.374-5.79C26.722 13.76 28.974 13 31.89 13c2.89 0 5.136.762 6.733 2.285s2.396 3.453 2.396 5.79c0 1.452-.365 2.745-1.1 3.878-.732 1.13-1.763 1.996-3.09 2.594 1.687.697 2.97 1.717 3.848 3.055.88 1.34 1.318 2.882 1.318 4.634 0 2.893-.896 5.242-2.686 7.05C37.517 44.096 35.135 45 32.162 45c-2.767 0-5.07-.75-6.91-2.243-2.17-1.768-3.256-4.188-3.256-7.266 0-1.692.408-3.25 1.224-4.663.817-1.42 2.103-2.512 3.86-3.28m.663 7.37c0 1.652.412 2.94 1.235 3.865.822.924 1.85 1.39 3.08 1.39 1.203 0 2.198-.446 2.987-1.337.788-.89 1.182-2.174 1.182-3.855 0-1.465-.4-2.646-1.202-3.533-.803-.893-1.82-1.338-3.05-1.338-1.425 0-2.487.505-3.185 1.517-.697 1.01-1.047 2.106-1.047 3.29m.54-13.416c0 1.198.327 2.13.985 2.798.656.67 1.53 1 2.623 1 1.11 0 1.993-.338 2.656-1.014.664-.676.996-1.613.996-2.81 0-1.124-.328-2.024-.984-2.702-.658-.676-1.525-1.014-2.604-1.014-1.12 0-2.01.342-2.676 1.025-.664.685-.996 1.59-.996 2.714" fill="#9aa0a5"/></svg>