<svg xmlns="http://www.w3.org/2000/svg" viewBox="0 -410 2048 2048"><path d="M862 1139V545q0-67 47-114.5t115-47.5q68 0 115 47.5t47 114.5v594q0 67-47 114.5t-115 47.5q-67 0-114.5-47.5T862 1139zM76 840q0-193 75-368.5T353 169Q480 42 655.5-33t368.5-75v324q-127 0-240.5 48T583 399q-87 87-135 200.5T400 840q0 127 48 240.5T583 1281q87 87 200.5 135t240.5 48q127 0 240.5-48t200.5-135q87-87 135-200.5t48-240.5q0-127-48-240.5T1465 399q-86-86-200-134.5T1024 216v-324q193 0 368.5 75T1695 169q127 127 202 302.5t75 368.5q0 193-75 368.5T1695 1511q-127 127-302.5 202t-368.5 75q-193 0-368.5-75.5T353 1510q-127-127-202-302T76 840z" fill="currentColor"/></svg>